<svg width="29" height="29" viewBox="0 0 29 29" fill="none" xmlns="http://www.w3.org/2000/svg">
<g clip-path="url(#clip0_1_926)">
<g clip-path="url(#clip1_1_926)">
<path fill-rule="evenodd" clip-rule="evenodd" d="M5.80153 5.16665C5.80153 4.00685 6.74173 3.06665 7.90153 3.06665H21.3182C22.478 3.06665 23.4182 4.00685 23.4182 5.16665V15.4196H24.913C26.9655 15.4196 27.7991 18.0611 26.1184 19.2392L15.8153 26.4615C15.0917 26.9687 14.1281 26.9687 13.4045 26.4615L3.10132 19.2392C1.42064 18.0611 2.25422 15.4196 4.30672 15.4196H5.80153V5.16665ZM7.90153 4.93332C7.77266 4.93332 7.6682 5.03778 7.6682 5.16665V17.2863H4.30672C4.23084 17.2863 4.19017 17.3077 4.16435 17.3279C4.13266 17.3527 4.10168 17.394 4.0842 17.4494C4.06672 17.5048 4.06838 17.5564 4.08012 17.5948C4.08968 17.6262 4.11066 17.6671 4.17279 17.7107L14.476 24.933C14.5563 24.9893 14.6634 24.9893 14.7438 24.933L25.047 17.7107C25.1091 17.6671 25.1301 17.6262 25.1396 17.5948C25.1514 17.5564 25.153 17.5048 25.1355 17.4494C25.1181 17.394 25.0871 17.3527 25.0554 17.3279C25.0296 17.3077 24.9889 17.2863 24.913 17.2863H21.5516V5.16665C21.5516 5.03778 21.4471 4.93332 21.3182 4.93332H7.90153ZM17.9247 8.37499C17.7349 8.37499 17.557 8.46729 17.4478 8.62243L10.5458 18.4224C10.2736 18.8089 10.55 19.3417 11.0227 19.3417H11.5405C11.7302 19.3417 11.9081 19.2494 12.0174 19.0942L18.9194 9.29421C19.1916 8.90775 18.9152 8.37499 18.4425 8.37499H17.9247ZM9.75732 10.552C9.75732 11.8308 10.7904 12.8958 12.1163 12.8958C13.4096 12.8958 14.4753 11.8484 14.4753 10.552C14.4753 9.24043 13.3944 8.19299 12.1163 8.19299C10.8391 8.19299 9.75732 9.22447 9.75732 10.552ZM12.8817 10.552C12.8817 10.9729 12.5487 11.3173 12.1163 11.3173C11.701 11.3173 11.3662 10.9747 11.3662 10.552C11.3662 10.1122 11.7028 9.77149 12.1163 9.77149C12.5469 9.77149 12.8817 10.1141 12.8817 10.552ZM14.7472 17.1798C14.7472 18.4587 15.7802 19.5237 17.1062 19.5237C18.3994 19.5237 19.4652 18.4762 19.4652 17.1798C19.4652 15.8683 18.3842 14.8208 17.1062 14.8208C15.8289 14.8208 14.7472 15.8523 14.7472 17.1798ZM17.8563 17.1798C17.8563 17.6026 17.5215 17.9452 17.1062 17.9452C16.6738 17.9452 16.3408 17.6007 16.3408 17.1798C16.3408 16.7553 16.6774 16.3993 17.1062 16.3993C17.5179 16.3993 17.8563 16.7534 17.8563 17.1798Z" fill="#424242"/>
</g>
</g>
<defs>
<clipPath id="clip0_1_926">
<rect width="28" height="28" fill="white" transform="translate(0.609985 0.5)"/>
</clipPath>
<clipPath id="clip1_1_926">
<rect width="28" height="28" fill="white" transform="translate(0.609985 0.5)"/>
</clipPath>
</defs>
</svg>
