<svg width="10" height="11" viewBox="0 0 10 11" fill="none" xmlns="http://www.w3.org/2000/svg">
<g clip-path="url(#clip0_1_93)">
<g clip-path="url(#clip1_1_93)">
<path fill-rule="evenodd" clip-rule="evenodd" d="M5.51758 6.39052C6.86529 5.65264 7.85506 4.43333 8.48691 2.7326C9.38558 3.66654 9.52518 4.64835 8.9057 5.67805C8.28623 6.70774 7.15685 6.94523 5.51758 6.39052Z" fill="#B3E4DC"/>
<path d="M0.758032 4.60979L2.39715 8.60006L2.51732 8.74403C2.67454 8.85259 2.88629 8.80969 2.99028 8.64821L3.57949 7.6948C6.45332 8.19585 9.25924 6.44015 9.28627 4.40069C7.68582 5.47137 6.3503 5.94084 4.91925 5.52693L5.55977 4.49048C5.60045 4.42732 5.62012 4.35212 5.61584 4.27611C5.60491 4.08178 5.44349 3.93222 5.25531 3.94205L1.0467 4.10952C0.677455 4.10964 0.677353 4.43331 0.758032 4.60979Z" fill="white"/>
</g>
</g>
<defs>
<clipPath id="clip0_1_93">
<rect width="10" height="10" fill="white" transform="translate(0 0.590027)"/>
</clipPath>
<clipPath id="clip1_1_93">
<rect width="10" height="10" fill="white" transform="translate(0 0.590027)"/>
</clipPath>
</defs>
</svg>
