<svg width="12" height="13" viewBox="0 0 12 13" fill="none" xmlns="http://www.w3.org/2000/svg">
<g clip-path="url(#clip0_1_186)">
<g clip-path="url(#clip1_1_186)">
<path d="M5.68667 2.63496C5.81 2.36843 6.19 2.36843 6.31333 2.63496L7.21713 4.5883C7.26739 4.69693 7.37066 4.77173 7.48983 4.78581L9.63266 5.03909C9.92505 5.07365 10.0425 5.43392 9.8263 5.63321L8.24206 7.09372C8.15395 7.17494 8.11451 7.29596 8.13789 7.4133L8.55843 9.52317C8.61582 9.81106 8.30839 10.0337 8.05146 9.89036L6.16854 8.83966C6.06382 8.78123 5.93618 8.78123 5.83146 8.83966L3.94854 9.89036C3.69161 10.0337 3.38419 9.81106 3.44157 9.52317L3.86211 7.4133C3.88549 7.29596 3.84605 7.17494 3.75794 7.09372L2.1737 5.63321C1.95752 5.43392 2.07495 5.07365 2.36735 5.03909L4.51017 4.78581C4.62934 4.77173 4.73261 4.69693 4.78287 4.5883L5.68667 2.63496Z" fill="#666666"/>
</g>
</g>
<defs>
<clipPath id="clip0_1_186">
<rect width="12" height="12" fill="white" transform="translate(0 0.560059)"/>
</clipPath>
<clipPath id="clip1_1_186">
<rect width="12" height="12" fill="white" transform="translate(0 0.560059)"/>
</clipPath>
</defs>
</svg>
